<svg width="261" height="29" viewBox="0 0 261 29" fill="none" xmlns="http://www.w3.org/2000/svg">
<g clip-path="url(#clip0_804_4941)">
<path d="M225.844 6.27238C225.487 5.94213 225.016 5.76436 224.53 5.777C224.03 5.79511 223.555 6.00116 223.201 6.35399C222.846 6.70681 222.638 7.18043 222.617 7.68021C222.609 7.94324 222.654 8.20523 222.749 8.45064C222.844 8.69604 222.987 8.91986 223.17 9.10881C223.353 9.29777 223.573 9.448 223.815 9.5506C224.057 9.6532 224.318 9.70608 224.581 9.70609C225.052 9.70513 225.505 9.52611 225.849 9.20497C226.148 8.93284 226.537 8.7822 226.941 8.78267H240.076V6.69989H226.941C226.535 6.69868 226.144 6.54627 225.844 6.27238Z" fill="#8C8C8C"/>
<path d="M224.581 20.0205C224.318 20.0206 224.057 20.0736 223.815 20.1764C223.573 20.2792 223.353 20.4296 223.17 20.6188C222.987 20.8081 222.844 21.0322 222.749 21.2779C222.654 21.5235 222.609 21.7858 222.618 22.049C222.639 22.5486 222.848 23.0218 223.203 23.3741C223.558 23.7264 224.032 23.9319 224.532 23.9496C225.017 23.9617 225.488 23.784 225.844 23.4542C226.144 23.1806 226.535 23.0282 226.94 23.0267H240.075V20.9439H226.941C226.537 20.9444 226.148 20.7938 225.849 20.5216C225.505 20.2006 225.052 20.0216 224.581 20.0205Z" fill="#8C8C8C"/>
<path d="M228.859 16.8282C229.123 16.8282 229.383 16.7753 229.626 16.6726C229.868 16.57 230.087 16.4197 230.27 16.2307C230.454 16.0417 230.597 15.8178 230.692 15.5723C230.787 15.3269 230.832 15.0648 230.823 14.8018C230.803 14.3021 230.594 13.8286 230.24 13.4759C229.885 13.1232 229.41 12.9172 228.911 12.8991C228.425 12.8864 227.953 13.0642 227.596 13.3945C227.297 13.6681 226.906 13.8205 226.5 13.822H222.617V15.9047H226.5C226.904 15.9043 227.294 16.0549 227.592 16.327C227.936 16.648 228.389 16.827 228.859 16.8282Z" fill="#8C8C8C"/>
<path d="M180.448 0.453247H177.55L172.779 5.22433H177.55V9.26513C176.921 8.43203 176.09 7.77248 175.136 7.34835C174.171 6.91613 173.115 6.70002 171.968 6.70002C170.418 6.70002 169.029 7.04176 167.802 7.72523C166.592 8.39288 165.594 9.38622 164.92 10.5926C164.226 11.8207 163.879 13.2391 163.878 14.8479C163.878 16.4567 164.225 17.8804 164.92 19.1189C165.59 20.332 166.589 21.3311 167.802 22.0014C169.029 22.6856 170.417 23.0273 171.968 23.0266C173.154 23.0266 174.24 22.7954 175.227 22.3329C176.144 21.8991 176.941 21.2492 177.551 20.4391V22.846H180.449V0.453247H180.448ZM176.886 17.792C176.444 18.6254 175.774 19.3162 174.955 19.784C174.129 20.2569 173.214 20.493 172.207 20.4923C171.182 20.4923 170.261 20.2562 169.445 19.784C168.63 19.3109 167.962 18.6215 167.514 17.792C167.04 16.9359 166.803 15.9547 166.804 14.8484C166.805 13.7422 167.041 12.7613 167.514 11.9059C167.96 11.0788 168.629 10.3936 169.445 9.92859C170.261 9.46679 171.181 9.23555 172.207 9.23485C173.213 9.23485 174.129 9.4661 174.955 9.92859C175.775 10.3883 176.446 11.0748 176.886 11.9059C177.309 12.6889 177.512 13.5868 177.551 14.5775V15.1188C177.514 16.1112 177.309 17.01 176.886 17.7925L176.886 17.792Z" fill="#8C8C8C"/>
<path d="M0 0.453247H2.89814V22.847H0V0.453247Z" fill="#65CBE4"/>
<path d="M32.3839 6.85156V22.8472H29.6382V20.4324C29.0488 21.2618 28.2524 21.9223 27.3284 22.3482C26.3731 22.8006 25.332 23.0268 24.2052 23.0268C22.072 23.0268 20.392 22.4385 19.1653 21.2619C17.9386 20.0853 17.3249 18.3497 17.3242 16.0549V6.85156H20.2213V15.7256C20.2213 17.2752 20.5935 18.4471 21.3379 19.2412C22.0822 20.0354 23.1477 20.4324 24.5341 20.4324C26.0628 20.4324 27.2701 19.9694 28.1557 19.0434C29.0414 18.1174 29.4842 16.8099 29.4842 15.1211V6.85156H32.3813H32.3839Z" fill="#65CBE4"/>
<path d="M49.5718 21.9713C48.3228 21.2946 47.284 20.2872 46.5692 19.0596C45.8447 17.8218 45.4824 16.4181 45.4824 14.8486C45.4824 13.2791 45.8447 11.8758 46.5692 10.6387C47.2815 9.4128 48.3212 8.4096 49.5718 7.74159C50.8489 7.04559 52.3025 6.69846 53.9326 6.7002C55.3816 6.7002 56.6743 6.992 57.8105 7.5756C58.9248 8.13712 59.8449 9.02015 60.4518 10.1104L58.2485 11.5287C57.7449 10.7648 57.1211 10.1906 56.3771 9.8061C55.6331 9.42156 54.8083 9.23016 53.9028 9.2319C52.8564 9.2319 51.9157 9.46315 51.0809 9.92564C50.2511 10.3844 49.5706 11.0718 49.1202 11.9061C48.6463 12.7622 48.4096 13.743 48.4103 14.8486C48.4103 15.9761 48.647 16.9679 49.1202 17.824C49.5705 18.6578 50.2514 19.3442 51.0814 19.8014C51.9166 20.2642 52.8572 20.4954 53.9033 20.4951C54.8081 20.4951 55.6329 20.3037 56.3776 19.9209C57.1223 19.5381 57.7461 18.9639 58.249 18.1983L60.4523 19.5873C59.8433 20.6796 58.9241 21.5667 57.811 22.1368C56.6751 22.7312 55.3825 23.028 53.9331 23.0273C52.303 23.0273 50.8493 22.6753 49.5718 21.9713Z" fill="#65CBE4"/>
<path d="M73.2924 3.22961C73.1122 3.05912 72.9696 2.85291 72.8736 2.62416C72.7776 2.39541 72.7304 2.14916 72.7349 1.90112C72.7311 1.65119 72.7786 1.40312 72.8745 1.17228C72.9704 0.941434 73.1126 0.732725 73.2924 0.559062C73.6644 0.186354 74.133 0 74.6982 0C75.2619 0 75.7286 0.176958 76.1018 0.528264C76.2827 0.694979 76.426 0.898253 76.5223 1.1246C76.6186 1.35094 76.6657 1.59518 76.6604 1.84109C76.6659 2.09593 76.6192 2.34921 76.5231 2.58532C76.4271 2.82142 76.2837 3.03536 76.1018 3.21395C75.7286 3.58718 75.2619 3.77249 74.6982 3.77249C74.1344 3.77249 73.6646 3.59188 73.2924 3.22961ZM73.247 6.85125H76.1451V22.8469H73.247V6.85125Z" fill="#65CBE4"/>
<path d="M120.358 0.453247H123.257V22.847H120.358V0.453247Z" fill="#8C8C8C"/>
<path d="M210.296 6.85158V20.6747C210.296 23.4708 209.602 25.5381 208.214 26.8765C206.826 28.2149 204.754 28.8836 201.997 28.8826C200.536 28.8897 199.082 28.6813 197.681 28.264C196.312 27.8513 195.205 27.263 194.361 26.4991L195.75 24.2655C196.494 24.9089 197.415 25.417 198.512 25.7897C199.604 26.1613 200.751 26.3501 201.905 26.3483C203.776 26.3483 205.16 25.9054 206.056 25.0198C206.951 24.1341 207.399 22.7861 207.398 20.9759V19.7079C206.724 20.5256 205.858 21.1635 204.878 21.5647C203.882 21.9774 202.8 22.1832 201.633 22.1822C200.104 22.1822 198.721 21.8556 197.483 21.2024C196.275 20.576 195.267 19.6244 194.571 18.4551C193.867 17.2785 193.515 15.9354 193.515 14.4258C193.514 12.9162 193.866 11.5731 194.571 10.3965C195.265 9.22984 196.275 8.28309 197.483 7.66537C198.721 7.02192 200.104 6.7002 201.633 6.7002C202.84 6.7002 203.962 6.9217 204.998 7.3647C206.004 7.78458 206.884 8.46071 207.548 9.32586V6.85158H210.294H210.296ZM204.788 18.9834C205.603 18.5605 206.283 17.9176 206.75 17.1277C207.223 16.3332 207.46 15.4326 207.459 14.4258C207.459 12.8772 206.946 11.6244 205.92 10.6674C204.894 9.7104 203.576 9.23224 201.966 9.23294C200.336 9.23294 199.008 9.71109 197.982 10.6674C196.956 11.6237 196.443 12.8765 196.443 14.4258C196.443 15.4329 196.68 16.3335 197.153 17.1277C197.62 17.9178 198.299 18.5608 199.114 18.9834C199.949 19.4267 200.9 19.6482 201.966 19.6479C203.012 19.6479 203.953 19.4264 204.788 18.9834Z" fill="#8C8C8C"/>
<path d="M257.408 7.42498C258.394 6.94126 259.592 6.69974 261 6.70044V9.50671C260.779 9.4843 260.557 9.47455 260.336 9.47748C258.766 9.47748 257.533 9.94537 256.638 10.8811C255.742 11.8169 255.295 13.1489 255.296 14.877V22.8469H252.397V6.8513H255.174V9.53699C255.678 8.61235 256.422 7.90835 257.408 7.42498Z" fill="#8C8C8C"/>
<path d="M105.812 0.453247H102.915L98.1443 5.22433H102.915V9.26513C102.286 8.43203 101.455 7.77248 100.501 7.34835C99.5358 6.91613 98.4796 6.70002 97.3326 6.70002C95.783 6.70002 94.3944 7.04176 93.167 7.72523C91.9572 8.39288 90.9586 9.38622 90.2846 10.5926C89.5906 11.8207 89.2435 13.2391 89.2432 14.8479C89.2428 16.4567 89.5899 17.8804 90.2846 19.1189C90.9548 20.332 91.954 21.3311 93.167 22.0014C94.3937 22.6856 95.7823 23.0273 97.3326 23.0266C98.5189 23.0266 99.6054 22.7954 100.592 22.3329C101.509 21.8991 102.306 21.2492 102.916 20.4391V22.846H105.814V0.453247H105.812ZM102.251 17.792C101.809 18.6254 101.139 19.3162 100.319 19.784C99.4944 20.2569 98.5786 20.493 97.5722 20.4923C96.5466 20.4923 95.626 20.2562 94.8103 19.784C93.995 19.3109 93.3265 18.6215 92.8789 17.792C92.4049 16.9359 92.1683 15.9547 92.169 14.8484C92.1697 13.7422 92.4063 12.7613 92.8789 11.9059C93.3246 11.0788 93.9939 10.3936 94.8103 9.92859C95.6257 9.46679 96.5463 9.23555 97.5722 9.23485C98.5779 9.23485 99.4937 9.4661 100.319 9.92859C101.14 10.3883 101.811 11.0748 102.251 11.9059C102.674 12.6889 102.877 13.5868 102.916 14.5775V15.1188C102.879 16.1112 102.674 17.01 102.251 17.7925V17.792Z" fill="#65CBE4"/>
<path d="M139.638 6.27238C139.281 5.94213 138.81 5.76436 138.324 5.777C137.824 5.79511 137.349 6.00116 136.995 6.35399C136.64 6.70681 136.432 7.18043 136.411 7.68021C136.403 7.94324 136.448 8.20523 136.543 8.45064C136.638 8.69604 136.781 8.91986 136.964 9.10881C137.147 9.29777 137.367 9.448 137.609 9.5506C137.851 9.6532 138.112 9.70608 138.375 9.70609C138.846 9.70513 139.299 9.52611 139.643 9.20497C139.942 8.93284 140.331 8.7822 140.735 8.78267H153.87V6.69989H140.735C140.329 6.69868 139.938 6.54627 139.638 6.27238Z" fill="#8C8C8C"/>
<path d="M138.375 20.0205C138.112 20.0206 137.851 20.0736 137.608 20.1764C137.366 20.2792 137.147 20.4296 136.963 20.6188C136.78 20.8081 136.637 21.0322 136.542 21.2779C136.447 21.5235 136.403 21.7858 136.411 22.049C136.432 22.5486 136.641 23.0218 136.996 23.3741C137.351 23.7264 137.826 23.9319 138.325 23.9496C138.811 23.9617 139.281 23.784 139.638 23.4542C139.937 23.1806 140.328 23.0282 140.734 23.0267H153.869V20.9439H140.735C140.331 20.9444 139.941 20.7938 139.643 20.5216C139.299 20.2006 138.846 20.0216 138.375 20.0205Z" fill="#8C8C8C"/>
<path d="M142.652 16.8282C142.916 16.8282 143.176 16.7753 143.419 16.6726C143.661 16.57 143.88 16.4197 144.063 16.2307C144.247 16.0417 144.39 15.8178 144.485 15.5723C144.58 15.3269 144.624 15.0648 144.616 14.8018C144.596 14.3021 144.387 13.8286 144.033 13.4759C143.678 13.1232 143.203 12.9172 142.704 12.8991C142.218 12.8864 141.746 13.0642 141.389 13.3945C141.09 13.6681 140.699 13.8205 140.293 13.822H136.41V15.9047H140.293C140.697 15.9043 141.087 16.0549 141.385 16.327C141.729 16.648 142.182 16.827 142.652 16.8282Z" fill="#8C8C8C"/>
<path d="M97.529 17.7612C99.0379 17.7612 100.261 16.5379 100.261 15.029C100.261 13.5201 99.0379 12.2969 97.529 12.2969C96.0201 12.2969 94.7969 13.5201 94.7969 15.029C94.7969 16.5379 96.0201 17.7612 97.529 17.7612Z" fill="#ED1E25"/>
<path d="M172.164 17.7612C173.673 17.7612 174.896 16.5379 174.896 15.029C174.896 13.5201 173.673 12.2969 172.164 12.2969C170.655 12.2969 169.432 13.5201 169.432 15.029C169.432 16.5379 170.655 17.7612 172.164 17.7612Z" fill="#ED1E25"/>
</g>
<defs>
<clipPath id="clip0_804_4941">
<rect width="261" height="28.8823" fill="white"/>
</clipPath>
</defs>
</svg>
